<?xml version="1.0" standalone="no"?>
<!DOCTYPE svg PUBLIC "-//W3C//DTD SVG 20010904//EN"
 "http://www.w3.org/TR/2001/REC-SVG-20010904/DTD/svg10.dtd">
<svg version="1.0" xmlns="http://www.w3.org/2000/svg"
 width="512.000000pt" height="512.000000pt" viewBox="0 0 512.000000 512.000000"
 preserveAspectRatio="xMidYMid meet">

<g transform="translate(0.000000,512.000000) scale(0.100000,-0.100000)"
fill="#000000" stroke="none">
<path d="M2205 3856 c-473 -119 -982 -312 -1413 -535 -73 -38 -107 -61 -117
-81 -13 -24 -13 -69 -6 -301 10 -305 13 -315 83 -333 33 -8 44 -4 149 58 362
213 942 448 1448 586 79 22 146 42 149 44 2 3 -11 12 -30 21 -55 28 -68 45
-68 86 0 40 -3 36 143 160 l30 26 -53 134 c-58 146 -80 179 -119 178 -14 0
-102 -19 -196 -43z"/>
<path d="M2631 3819 c-41 -5 -76 -10 -78 -12 -4 -4 57 -159 68 -171 4 -5 42
19 85 53 79 63 113 74 147 48 10 -6 54 -68 100 -137 l82 -124 100 -13 c253
-31 390 -89 699 -290 71 -46 130 -82 132 -81 8 9 -141 184 -240 283 -218 217
-426 345 -681 421 -102 30 -281 40 -414 23z"/>
<path d="M2627 3550 c-107 -85 -174 -145 -171 -152 3 -7 109 -69 237 -137
l232 -123 72 78 c40 44 73 83 73 88 0 16 -245 386 -256 386 -6 0 -90 -63 -187
-140z"/>
<path d="M3042 3180 l-62 -68 666 -604 c366 -331 677 -607 691 -613 31 -12 69
8 100 54 31 46 29 67 -9 103 -55 52 -1269 1151 -1298 1174 l-26 22 -62 -68z"/>
<path d="M3464 2244 c-43 -31 -115 -86 -159 -123 -189 -156 -275 -216 -410
-284 -200 -100 -408 -143 -655 -134 -214 7 -332 38 -715 187 -202 79 -275 100
-348 100 -43 0 -59 -4 -64 -16 -9 -24 9 -35 68 -40 30 -3 78 -11 106 -20 l53
-15 -98 -92 c-53 -52 -115 -110 -137 -130 -33 -30 -38 -39 -29 -53 6 -10 16
-20 22 -22 6 -2 75 58 154 133 131 124 146 135 173 130 16 -3 33 -9 37 -13 5
-5 -34 -54 -87 -109 -94 -100 -110 -128 -79 -140 11 -4 50 28 130 108 l113
113 30 -15 30 -14 -100 -115 c-184 -210 -190 -217 -183 -234 15 -38 47 -12
191 154 81 94 155 170 163 170 44 -1 38 -18 -46 -135 -46 -66 -83 -127 -82
-135 2 -8 13 -16 24 -18 17 -2 39 21 110 122 49 71 95 126 103 126 43 -1 38
-17 -60 -193 -54 -97 -99 -181 -99 -186 0 -5 7 -14 15 -21 12 -10 18 -10 29 0
8 6 59 92 113 191 92 169 99 179 123 173 14 -3 26 -7 28 -9 2 -1 -20 -57 -47
-124 -28 -66 -51 -125 -51 -130 0 -5 6 -14 13 -20 24 -19 43 8 93 129 26 63
50 119 55 124 4 4 18 4 32 0 l24 -9 -52 -184 c-29 -101 -51 -190 -48 -198 8
-21 43 -15 53 10 5 12 30 96 56 187 25 91 50 169 54 174 5 4 19 4 32 0 l24 -9
-19 -123 c-15 -93 -17 -126 -8 -135 8 -8 16 -9 29 -1 12 8 23 44 38 135 l20
124 32 3 32 3 -7 -205 c-6 -192 -5 -206 12 -212 34 -13 45 21 45 140 0 61 3
148 7 194 l6 82 28 0 c16 0 29 -3 30 -7 1 -5 6 -59 13 -122 8 -89 15 -116 28
-125 13 -8 21 -7 30 2 9 9 9 39 0 134 -6 67 -10 123 -9 124 1 1 15 4 32 6 l29
3 41 -188 c23 -103 47 -193 53 -199 16 -16 42 -1 42 25 0 13 -18 102 -39 198
-22 96 -38 175 -36 177 1 2 15 4 31 5 27 2 29 -1 72 -121 39 -108 47 -123 66
-120 11 2 22 11 24 20 3 13 -31 118 -75 234 -2 7 9 16 25 22 l29 10 94 -190
c52 -104 101 -194 110 -199 12 -6 21 -4 30 7 11 13 -2 45 -83 209 l-97 192 26
12 c14 7 29 8 33 4 4 -4 42 -61 84 -126 56 -86 81 -118 94 -115 34 7 22 44
-52 158 -68 103 -74 116 -59 128 9 6 20 12 25 12 4 0 73 -79 153 -175 142
-171 174 -198 189 -160 5 15 -36 71 -207 274 -78 94 -79 94 -55 107 22 12 29
7 123 -84 129 -126 139 -134 159 -126 34 13 13 45 -96 148 -96 90 -110 107
-99 120 8 9 17 16 21 16 5 0 100 -72 211 -160 112 -89 210 -159 219 -158 8 2
16 12 18 24 2 16 -39 53 -193 174 -107 85 -195 157 -195 161 0 3 7 12 15 19
12 10 40 -4 163 -84 82 -53 156 -96 166 -96 25 0 31 29 10 49 -10 10 -74 53
-141 96 -68 43 -123 81 -123 85 0 10 35 40 47 40 6 0 100 -51 209 -114 158
-90 203 -112 217 -104 10 5 17 16 15 25 -2 9 -90 66 -195 127 -189 108 -193
111 -174 129 18 19 22 18 155 -42 133 -60 169 -70 180 -52 14 22 -13 42 -125
91 -66 29 -122 56 -124 60 -3 4 14 20 36 34 25 17 39 33 37 44 -6 34 -44 23
-124 -34z"/>
</g>
</svg>
